<?xml version="1.0" encoding="UTF-8"?>
<svg width="18px" height="19px" viewBox="0 0 18 19" version="1.1" xmlns="http://www.w3.org/2000/svg" xmlns:xlink="http://www.w3.org/1999/xlink">
    <title>icon/nutzungshinweise</title>
    <g id="Styleguide" stroke="none" stroke-width="1" fill="none" fill-rule="evenodd">
        <g id="Styleguide-/-Icons" transform="translate(-571.000000, -318.000000)">
            <g id="Group" transform="translate(570.000000, 317.000000)">
                <g id="Group-2" transform="translate(1.000000, 1.000000)">
                    <polyline id="Path-2" fill="#000000" points="2.81713867 12.9350586 2.81713867 18.6760254 10.8171387 13.5320313"></polyline>
                    <g id="Group">
                        <ellipse id="Oval" fill="#000000" cx="9" cy="8" rx="9" ry="8"></ellipse>
                        <path d="M9.77820313,9.38507813 L9.99335938,3 L8.04429688,3 L8.25945313,9.38507813 L9.77820313,9.38507813 Z M9.01882813,12.315 C9.32679688,12.315 9.57464844,12.2242969 9.76238281,12.0428906 C9.95011719,11.8614844 10.0439844,11.6315625 10.0439844,11.353125 C10.0439844,11.0704688 9.95011719,10.8384375 9.76238281,10.6570313 C9.57464844,10.475625 9.32679688,10.3849219 9.01882813,10.3849219 C8.71507813,10.3849219 8.46933594,10.4766797 8.28160156,10.6601953 C8.09386719,10.8437109 8,11.0746875 8,11.353125 C8,11.6315625 8.09386719,11.8614844 8.28160156,12.0428906 C8.46933594,12.2242969 8.71507813,12.315 9.01882813,12.315 Z" id="!" fill="#FFFFFF" fill-rule="nonzero"></path>
                    </g>
                </g>
            </g>
        </g>
    </g>
</svg>