<?xml version="1.0" encoding="UTF-8"?>
<svg width="14px" height="14px" viewBox="0 0 14 14" version="1.1" xmlns="http://www.w3.org/2000/svg" xmlns:xlink="http://www.w3.org/1999/xlink">
    <title>Iicon/workspace_vollbild</title>
    <g id="Styleguide" stroke="none" stroke-width="1" fill="none" fill-rule="evenodd">
        <g id="Styleguide-/-Icons" transform="translate(-228.000000, -446.000000)" fill="#000000">
            <g id="Fill-1" transform="translate(228.000000, 446.000000)">
                <path d="M9,0 L9,2.001 L12,2.001 L12,5 L14,5 L14,0 L9,0 Z M0,0 L0,5 L2,5 L2,2.001 L5,2.001 L5,0 L0,0 Z M12,9 L12,12.001 L9,12.001 L9,14 L14,14 L14,9 L12,9 Z M0,9 L0,14 L5,14 L5,12.001 L2,12.001 L2,9 L0,9 Z"></path>
            </g>
        </g>
    </g>
</svg>