<svg width="146" height="122" viewBox="0 0 146 122" fill="none" xmlns="http://www.w3.org/2000/svg">
<rect width="146" height="97.395" rx="5" fill="white"/>
<path fill-rule="evenodd" clip-rule="evenodd" d="M85.3379 122V97.395H60.6619L85.3379 122Z" fill="white"/>
<path opacity="0.5" fill-rule="evenodd" clip-rule="evenodd" d="M70.6334 27.8477C72.2449 28.0729 73.7413 28.4107 75.1226 28.9738L79.6118 25.4827L83.4104 27.6224L82.6046 33.2533C83.7557 34.1543 84.9068 35.2804 85.8277 36.4066L91.5831 35.6183L93.7701 39.3347L90.2018 43.7268C90.7773 45.0782 91.1226 46.5422 91.3528 48.1189L96.6478 50.146V54.4255L91.3528 56.5652C91.1226 58.0292 90.6622 59.4933 90.2018 60.8447L93.7701 65.2368L91.4679 69.0658L85.8277 68.1648C84.9068 69.4036 83.7557 70.4172 82.6046 71.4307L83.4104 76.949L79.6118 79.0887L75.1226 75.5976C73.6262 76.1607 72.1298 76.4985 70.6334 76.8364L68.5614 82.0168H64.0722L62.0003 76.8364C60.5039 76.4985 59.0075 76.1607 57.5111 75.5976L53.0218 79.0887L49.2233 76.949L50.029 71.4307C48.8779 70.4172 47.842 69.4036 46.806 68.1648L41.1657 68.9531L38.9787 65.2368L42.4319 60.8447C41.9715 59.4933 41.511 58.0292 41.2808 56.4526L35.9858 54.4255V50.146L41.2808 48.0062C41.6261 46.5422 41.9715 45.0782 42.547 43.7268L38.9787 39.3347L41.1657 35.5057L46.806 36.4066C47.842 35.1678 48.8779 34.1543 50.1441 33.1407L49.2233 27.6224L53.1369 25.4827L57.6262 28.9738C59.0075 28.4107 60.5039 28.0729 62.0003 27.8477L64.1873 22.5546H68.5614L70.6334 27.8477ZM92.6201 19.0021C93.63 19.1154 94.64 19.4551 95.5378 19.7949L98.5677 17.4167L101.149 18.8889L100.588 22.6261C101.373 23.3056 102.046 24.0984 102.72 24.8911L106.535 24.3249L107.994 26.9296L105.637 29.8741C105.974 30.8934 106.199 31.9126 106.423 32.9319L110.014 34.4041V37.3486L106.423 38.7076C106.199 39.8401 105.974 40.7461 105.637 41.7654L107.994 44.8231L106.535 47.3146L102.72 46.7484C102.046 47.6544 101.373 48.3339 100.588 49.0134L101.149 52.8639L98.5677 54.3361L98.0066 53.8831V49.3531L92.6201 47.2014C92.5078 46.8616 92.5078 46.5219 92.3956 46.1821C96.9966 45.0496 100.363 40.8594 100.363 35.8764C100.363 29.8741 95.5378 25.1176 89.7024 25.1176C87.7946 25.1176 85.9991 25.5706 84.4281 26.4766L79.8271 23.7586L75.3383 27.3826C74.3284 27.0429 73.3184 26.8164 72.1962 26.5899L71.9718 25.9104L72.8695 24.3249L76.685 24.8911C77.3583 24.0984 78.0316 23.3056 78.8171 22.6261L78.256 18.8889L80.8371 17.3034L83.867 19.7949C84.7647 19.3419 85.7747 19.1154 86.7847 19.0021L88.2435 15.3782H91.1612L92.6201 19.0021ZM65.8027 36.9076C74.2963 36.9076 81.2253 43.8166 81.2253 52.2857C81.2253 60.7548 74.2963 67.6639 65.8027 67.6639C57.1974 67.6639 50.3802 60.7548 50.3802 52.2857C50.3802 43.8166 57.1974 36.9076 65.8027 36.9076Z" fill="#A8A39F"/>
</svg>
